<svg version="1.1" id="Layer_1" xmlns="http://www.w3.org/2000/svg" xmlns:Xlink="http://www.w3.org/1999/xlink" x="0px" y="0px"
	 width="100%" viewBox="0 0 1024 1024" enable-background="new 0 0 1024 1024" xml:space="preserve">
<path fill="#000000" opacity="1.000000" stroke="none" 
	d="
M255.001862,459.012695 
	C246.584869,456.389313 237.938705,454.217041 231.577972,447.444611 
	C219.681488,434.778076 217.329880,417.476532 225.330154,401.640106 
	C234.481277,383.525604 253.478104,376.285950 272.165680,383.640411 
	C275.840240,385.086548 276.822479,386.705536 275.333221,390.753754 
	C270.163788,404.806000 265.470642,419.033691 260.627350,433.205231 
	C260.259338,434.281982 260.134705,435.441925 259.897156,436.562317 
	C273.315460,439.373047 283.099884,422.353821 278.949493,403.735229 
	C281.974396,400.189819 287.103760,400.274719 291.508972,396.476929 
	C288.106171,396.502167 285.692688,395.342468 283.777985,398.123138 
	C283.685944,398.256775 283.554352,398.451599 283.429077,398.461273 
	C275.066467,399.108551 276.284424,404.708405 277.276428,410.255615 
	C278.275482,415.842285 276.963226,421.440338 274.860077,426.254486 
	C273.349152,429.712952 268.921936,431.897369 264.835327,435.495819 
	C264.805054,429.971039 264.168793,426.663483 267.290649,422.941071 
	C269.862274,419.874756 270.265869,414.752289 271.308411,410.549469 
	C272.332855,406.419617 273.899902,402.267975 275.487762,398.671967 
	C277.376160,394.395203 277.389954,390.468597 277.678925,386.263123 
	C277.971802,382.000488 276.076660,380.228027 271.797302,380.250122 
	C268.758301,380.265808 265.960083,380.730499 262.907715,377.858795 
	C260.860901,375.933075 255.398346,376.419037 251.954254,378.389923 
	C249.337173,379.887543 246.778076,380.567841 243.934113,380.282410 
	C241.343582,380.022400 238.523300,381.255554 237.816132,382.805511 
	C235.873642,387.062866 231.569427,389.053223 228.689514,391.926331 
	C224.061279,396.543762 221.754822,401.740601 219.670029,407.270233 
	C216.634949,415.320404 215.802979,424.167999 218.121902,432.149750 
	C220.158157,439.158508 224.702087,445.807434 230.924469,450.398834 
	C233.827881,452.541168 235.863953,455.405090 239.177795,457.561432 
	C233.041870,459.266357 227.525330,460.567230 221.612030,460.377502 
	C213.845764,460.128387 207.770737,464.023376 202.073608,469.083496 
	C199.336761,471.514282 196.562607,473.563751 194.187042,476.593811 
	C189.339066,482.777618 186.251755,489.690613 183.581451,496.815765 
	C180.623245,496.872009 180.160309,495.295380 180.565231,493.214508 
	C180.914658,491.418915 181.023697,489.380737 181.972717,487.929626 
	C187.814774,478.996613 190.472214,467.649597 201.799667,462.848572 
	C207.150986,460.580475 216.632111,440.637268 214.457550,436.092072 
	C211.231125,429.348206 211.349762,422.436096 212.179367,415.542572 
	C213.200516,407.057129 216.493073,399.006317 221.427505,392.185455 
	C228.724182,382.099304 228.931274,378.968170 219.817154,370.315704 
	C218.339233,368.912628 216.845551,367.415100 217.365875,365.166962 
	C218.063309,362.153534 219.869003,361.380249 222.517456,363.148315 
	C224.032379,364.159668 225.384460,365.476501 227.002136,366.257507 
	C229.239395,367.337616 231.692490,366.956970 232.322372,364.373932 
	C234.697525,354.633911 241.714905,347.679779 246.649612,339.472321 
	C250.785049,332.594208 251.363800,324.677032 251.550781,316.841827 
	C251.615067,314.148285 249.586227,312.393219 247.544525,310.818420 
	C244.487366,308.460419 245.047318,306.166168 247.713058,303.841675 
	C251.962418,300.136261 258.373474,300.112885 263.360962,303.887115 
	C268.924377,308.097168 268.972290,308.131622 272.981049,302.556335 
	C276.781006,297.271484 282.099518,293.336090 285.759155,287.914673 
	C287.246277,285.711609 289.834595,285.901642 292.175934,285.988190 
	C298.727905,286.230316 298.953796,286.017883 299.143280,279.208923 
	C299.165131,278.424896 299.461884,277.648499 299.598480,277.019165 
	C300.187988,276.805023 300.606750,276.504669 300.783966,276.610138 
	C305.641754,279.502106 308.113251,277.305267 309.153503,272.560913 
	C310.847229,264.836578 317.973022,260.627960 321.108856,253.833145 
	C321.748413,252.447357 323.549835,252.253250 324.946411,251.696701 
	C329.979187,249.691162 334.647552,247.264404 336.718079,241.685242 
	C337.484222,239.620789 339.154205,238.108032 340.876068,236.772110 
	C343.533478,234.710297 344.833099,232.108841 345.223938,228.707214 
	C345.903046,222.796585 350.943878,220.514877 356.216370,223.439926 
	C358.615112,224.770706 360.502106,227.238647 363.616394,226.931366 
	C365.178436,225.642029 364.661224,223.742432 365.307343,222.249359 
	C365.815002,221.076370 366.496429,220.241760 367.883881,220.320190 
	C368.770477,220.370331 369.502869,220.727051 369.835052,221.609589 
	C371.573364,226.227631 374.180481,230.375397 376.509033,234.636169 
	C378.098328,237.544220 380.426849,241.292816 380.353760,245.376709 
	C380.299713,248.397003 382.530426,251.228271 383.892792,253.111496 
	C387.922089,258.681244 387.878967,265.970032 392.690674,271.155426 
	C394.337982,272.930725 394.793793,276.458435 395.605499,279.063904 
	C397.653564,285.637848 402.308655,291.022675 403.500214,297.870514 
	C403.788605,299.528015 405.310577,299.812653 406.650177,299.665924 
	C410.641663,299.228760 415.130249,301.627594 418.471344,297.089386 
	C419.499268,295.693176 422.356781,297.272278 424.161865,296.045715 
	C427.518829,293.764557 428.814240,285.291077 426.950195,281.592987 
	C423.886383,275.514801 420.910767,269.393951 418.257446,263.083527 
	C415.693024,256.984650 412.949554,250.820221 409.658875,244.928329 
	C406.995636,240.159805 404.811066,234.902954 402.660370,229.748611 
	C400.219025,223.897827 398.850525,217.511017 395.983154,212.061844 
	C393.817505,207.946106 391.122131,203.996033 389.298309,199.601547 
	C388.753265,198.288361 387.450134,198.423004 386.303986,198.248505 
	C381.219513,197.474411 376.332092,198.852570 372.647156,201.854309 
	C369.664307,204.284119 366.674194,203.875717 362.425598,205.263626 
	C365.839630,200.213669 370.145294,198.211838 374.020966,196.828018 
	C379.315643,194.937546 384.578369,192.117203 390.576538,192.595337 
	C392.357391,192.737289 393.780579,191.636658 394.959747,190.465439 
	C398.619568,186.830276 403.346222,185.045761 407.900635,183.062149 
	C414.091949,180.365601 420.496094,182.873337 422.354431,189.304031 
	C424.059845,195.205490 428.377533,198.746887 432.158508,202.874634 
	C434.247375,205.155060 436.990601,205.414429 439.460815,203.871506 
	C447.338318,198.951141 456.806763,199.584793 465.189087,196.350891 
	C467.124359,195.604248 469.183960,195.352219 470.870941,193.897980 
	C471.863647,193.042267 473.050964,192.245361 474.287018,191.866013 
	C482.427490,189.367737 490.163666,185.910172 497.892181,182.384247 
	C500.949188,180.989563 504.312042,181.043793 507.715271,181.549988 
	C518.262146,183.118713 528.262146,182.415970 536.839966,174.825394 
	C540.929932,171.206161 546.073425,170.491989 551.449158,171.589935 
	C559.514160,173.237137 567.815125,173.757462 575.831848,172.730865 
	C588.641541,171.090561 599.489624,165.064972 604.961609,152.743057 
	C609.429871,142.681213 617.181213,139.587051 627.059753,140.177963 
	C641.489624,141.041107 654.898926,144.972870 666.214783,154.579773 
	C671.232605,158.839783 677.325317,161.294540 683.366760,163.678070 
	C688.045654,165.524017 692.870361,164.891251 697.612122,163.590714 
	C702.760559,162.178619 707.965271,161.056061 713.280334,160.482361 
	C719.095764,159.854645 722.041443,161.515045 724.291626,166.836914 
	C726.056152,171.010284 727.441589,175.300369 727.064697,179.917572 
	C725.674072,196.955017 732.393433,210.746002 744.052368,222.575272 
	C751.418213,230.048721 758.072510,237.796036 762.781677,247.537842 
	C767.829590,257.980164 777.213196,265.148621 786.893372,271.449921 
	C789.714844,273.286591 792.225098,275.116486 794.209839,278.001160 
	C797.437134,282.691986 801.465027,286.516937 807.394775,288.066650 
	C814.473938,289.916779 821.441345,292.230042 828.382324,294.565308 
	C840.403809,298.609924 846.841431,307.835358 850.166809,319.406952 
	C851.599609,324.392731 850.253235,329.723755 849.571777,334.772095 
	C846.916138,354.445435 850.521790,372.612701 861.926819,388.944641 
	C867.397766,396.778961 867.839050,405.480957 866.975281,414.328156 
	C866.120178,423.086456 864.502441,431.773743 863.109070,440.474518 
	C862.470459,444.462280 860.190857,447.200836 856.107544,447.999115 
	C852.850525,448.635803 851.350891,450.761322 850.575134,453.714966 
	C848.457397,461.778351 846.542480,469.943451 846.302429,478.254364 
	C846.155884,483.326996 849.296509,487.669586 852.893860,491.162903 
	C865.359192,503.267822 875.094727,516.861938 879.772156,534.004822 
	C881.844666,541.600708 883.859253,548.833984 883.186462,556.851624 
	C882.718933,562.423767 881.526611,567.419739 877.796997,571.508179 
	C874.063477,575.600952 871.849304,580.331909 870.840820,585.666138 
	C869.523010,592.636414 866.294800,598.743042 863.248779,605.081909 
	C857.708984,616.610596 853.013733,628.568787 848.448975,640.531982 
	C846.250000,646.294861 843.680969,651.448669 838.546570,655.117065 
	C835.788818,657.087341 834.009766,659.921204 832.487610,662.948486 
	C830.296631,667.305847 827.276123,669.393555 821.962952,667.675537 
	C816.038208,665.759705 813.561890,667.292542 810.328918,672.962891 
	C807.511047,677.905273 804.488342,682.730896 800.787476,687.235962 
	C802.596252,684.325500 802.403931,680.749390 804.400513,678.008423 
	C807.524353,673.719788 805.578857,668.672729 800.442566,668.397095 
	C796.918030,668.208008 795.517578,663.767883 791.416016,664.754395 
	C792.254639,667.563721 794.940857,668.311401 797.133545,669.402710 
	C803.550110,672.596130 803.753906,673.026794 800.436829,679.537903 
	C799.005676,682.347229 797.275146,685.037720 796.157837,687.964355 
	C794.872681,691.330627 793.064880,691.751038 790.042358,690.234131 
	C782.320679,686.358704 774.476257,682.726929 766.768555,678.824646 
	C747.475891,669.057007 728.267578,659.122070 708.935547,649.433533 
	C705.392883,647.658081 703.933716,645.938171 706.357849,642.224915 
	C707.710449,640.152893 708.752136,637.844604 709.692505,635.544128 
	C711.434448,631.282715 713.200317,627.281067 719.708679,630.672974 
	C717.360840,618.955505 720.469910,609.249329 727.697083,599.883362 
	C722.253174,601.937866 720.586121,605.408752 719.079834,609.779236 
	C717.466736,614.459717 715.809753,618.931213 716.120544,623.936768 
	C716.140015,624.250366 715.967651,624.853088 715.865417,624.857300 
	C710.315186,625.085022 710.968018,631.043152 707.784363,633.578979 
	C700.849609,639.102600 702.333618,648.690491 709.958679,653.062439 
	C712.676147,654.620605 716.184265,655.350281 718.457825,658.827209 
	C711.854919,659.816223 705.592041,659.227966 699.371765,659.299927 
	C692.983154,659.373779 687.220032,660.581726 682.411804,665.387695 
	C678.721069,669.076660 673.081177,670.359070 670.041504,675.079773 
	C664.633850,683.477783 658.462830,691.464722 659.230347,702.385071 
	C659.458374,705.628967 660.480469,706.819702 663.681580,706.717224 
	C669.008118,706.546692 674.343323,706.645752 680.334595,706.829102 
	C681.141052,707.150269 681.287903,707.273682 681.434692,707.397095 
	C680.139526,711.832886 675.935242,713.500977 672.918091,716.283020 
	C670.092896,718.887939 670.760559,723.979614 674.592102,726.148132 
	C673.410156,729.226440 675.414856,730.574890 677.293457,731.421631 
	C678.661133,732.038086 679.905945,733.355103 680.948303,733.535095 
	C684.998596,734.234253 687.223267,738.773132 691.324158,738.554993 
	C697.898499,738.205322 704.106323,740.707458 711.089417,739.150818 
	C717.026428,737.827332 721.598755,734.866577 726.604614,732.276611 
	C730.632935,730.192383 732.564148,725.926208 735.654480,722.840454 
	C739.620850,718.879700 741.896729,714.183777 741.549744,707.070374 
	C739.697083,712.847900 737.495483,716.949829 734.682312,720.675232 
	C724.170288,734.596069 707.309937,742.715637 689.056641,735.330750 
	C683.709351,733.167358 679.659851,729.140503 674.992493,726.002563 
	C672.136047,722.320435 673.493835,719.739563 676.597412,716.753784 
	C686.676147,707.057434 696.453796,697.047607 706.322693,687.134033 
	C707.466187,685.985291 708.855347,684.972595 709.379822,682.980469 
	C706.253479,680.663147 702.881836,679.814636 699.138123,680.805176 
	C688.481689,683.625122 681.858948,690.521790 679.498291,701.197266 
	C678.816833,704.278931 677.691406,705.624695 674.614197,705.291687 
	C673.954651,705.220276 673.282166,705.268372 672.615601,705.262573 
	C660.844971,705.159729 658.939270,702.573669 663.417358,691.319214 
	C668.874084,677.605347 678.925415,668.302917 692.613220,662.915588 
	C712.253479,655.185425 731.928101,667.319275 738.652771,682.924377 
	C739.375854,684.602539 740.243958,686.218140 741.049133,687.860474 
	C742.074036,682.412659 738.911682,674.981873 733.912537,671.490601 
	C730.675598,669.230164 728.443176,666.131287 726.055908,663.414612 
	C726.530762,662.004150 727.616089,661.578125 728.165894,661.938354 
	C733.788147,665.622314 740.188232,667.975037 746.171021,670.682434 
	C753.207153,673.866455 759.173706,679.001343 766.919922,681.130249 
	C770.374695,682.079773 774.172058,685.013184 777.702087,687.138916 
	C783.409912,690.576172 789.299988,694.407532 797.008179,694.527039 
	C790.044739,699.035583 793.606262,705.915588 792.447388,711.623901 
	C791.844299,714.594788 794.265320,717.037476 796.425049,718.773865 
	C806.673523,727.013367 812.494812,738.854919 819.399414,749.367493 
	C825.434631,758.556396 827.907654,770.628662 825.810669,782.451538 
	C825.223755,785.760193 823.584229,788.849060 821.209290,791.206482 
	C814.836182,797.532349 808.853516,804.247925 801.621948,809.718628 
	C796.190918,813.827271 792.255432,819.564941 787.104004,824.087036 
	C777.805359,832.249817 766.466064,836.238037 755.150146,840.014832 
	C744.377258,843.610474 734.973755,849.334717 725.755920,855.663757 
	C718.876831,860.386963 711.966003,862.431702 703.260986,859.077820 
	C696.823608,856.597534 689.370483,855.702026 682.264282,858.683105 
	C677.487793,860.686768 672.468567,861.883118 667.241943,862.194153 
	C663.847473,862.396179 660.647278,863.684998 657.942688,865.611450 
	C648.348755,872.445129 637.815491,873.572205 626.498352,871.806641 
	C611.292908,869.434570 596.257874,871.657837 581.346191,874.500732 
	C573.453613,876.005554 567.197998,880.220032 563.518982,887.677979 
	C559.459900,895.906555 552.663086,900.703552 544.321960,904.198059 
	C532.970398,908.953613 521.885376,914.362366 510.789124,919.705200 
	C500.882111,924.475464 494.718384,923.663391 486.713623,916.150208 
	C483.059692,912.720703 479.354645,909.297058 476.755890,904.996521 
	C470.631866,894.862000 462.326752,886.823242 453.116150,879.588379 
	C452.075043,878.770569 450.779358,877.901672 450.329559,876.767700 
	C447.640228,869.987427 443.355225,870.046448 437.305267,872.522827 
	C425.997223,877.151306 414.210083,877.482544 401.983917,876.408142 
	C392.979065,875.616821 383.733612,876.200317 374.599670,875.954895 
	C365.947540,875.722412 357.292572,875.433472 348.653229,874.925049 
	C335.033081,874.123596 323.642426,868.731445 313.158875,859.749817 
	C304.143372,852.025940 294.200470,845.215698 283.795166,839.207825 
	C278.951385,836.411072 275.124756,832.264099 271.283600,827.983521 
	C260.705536,816.195312 253.707825,801.830261 242.743103,790.276611 
	C236.183395,783.364746 231.296539,774.801025 225.678818,766.974792 
	C221.529999,761.194885 216.828171,756.356873 211.307968,751.984985 
	C205.324722,747.246399 199.496719,742.527466 192.707520,738.772034 
	C186.965134,735.595764 183.287964,729.857239 183.870285,722.495361 
	C184.308609,716.953613 181.866928,712.221558 179.895035,707.229980 
	C175.431717,695.931580 172.798050,684.087097 176.920929,672.224060 
	C179.792938,663.960266 184.244400,656.451477 190.925003,650.155823 
	C195.924133,645.444824 199.463455,639.178589 203.617950,633.578979 
	C209.396500,625.790466 217.130539,621.922119 226.802582,622.302734 
	C229.232132,622.398254 230.130707,621.418579 231.411667,619.567017 
	C236.669098,611.967651 241.574265,604.295837 251.258102,600.804871 
	C256.005249,599.093567 261.388245,596.424988 262.969208,589.717224 
	C264.238037,584.333618 262.975586,580.141663 259.296722,577.172607 
	C252.211975,571.454834 247.285278,562.517151 235.574661,562.060791 
	C239.330780,559.989441 242.007385,560.105225 244.642181,560.070740 
	C255.639435,559.926758 266.638641,559.653748 277.633698,559.765869 
	C281.740356,559.807678 283.750183,558.736877 283.919983,554.296814 
	C284.293915,544.519043 282.762573,534.737366 283.264374,525.083069 
	C283.753265,515.676819 278.713531,507.031281 280.718536,497.752930 
	C281.627106,493.548340 277.939911,491.251862 277.145905,487.569397 
	C275.935730,481.956879 272.063385,476.762054 266.336090,473.698273 
	C269.246826,478.594482 272.870911,483.006073 274.992157,488.355713 
	C278.339050,496.796326 280.401794,505.331146 280.281647,514.557007 
	C280.127869,526.368896 280.933075,538.190674 281.167999,550.011292 
	C281.299133,556.609985 280.785156,557.080444 274.096771,557.105896 
	C260.932404,557.156067 247.767441,557.113464 234.602951,557.054504 
	C230.421692,557.035828 226.104050,557.127014 227.833694,550.621643 
	C228.287262,548.915833 226.852875,547.543884 225.517639,546.452637 
	C222.900558,544.313782 219.977203,542.839722 216.700165,541.922791 
	C213.715118,541.087646 210.513107,540.612061 208.105911,538.289856 
	C208.749390,535.013428 211.209686,534.979126 213.529144,535.059143 
	C228.351959,535.570740 243.135818,534.393005 257.939880,534.160950 
	C260.356079,534.123169 261.803925,533.709717 261.679932,530.933838 
	C261.273102,521.825928 262.435608,512.679626 259.625031,503.655579 
	C256.841827,494.719360 250.809906,489.517365 242.595810,485.990967 
	C240.230606,484.975586 239.439819,486.985229 237.674026,487.714111 
	C245.453415,487.930573 249.640091,493.117126 253.960190,498.494232 
	C256.890350,502.141205 258.699066,505.729523 258.414459,510.524597 
	C258.099091,515.838806 258.169342,521.192444 258.388550,526.515930 
	C258.532928,530.021912 257.047089,531.704773 253.769302,532.398987 
	C251.818069,532.812195 249.930634,533.373840 247.892578,533.362183 
	C236.227661,533.295776 224.562134,533.332397 212.897354,533.252563 
	C207.592316,533.216248 206.296371,531.662354 207.319351,526.545227 
	C208.667603,519.800964 206.730240,513.072815 207.559845,506.269592 
	C208.538116,498.247406 215.979202,489.500519 224.145935,488.793884 
	C228.058182,488.455353 230.621643,484.641052 234.784912,485.563293 
	C216.311783,482.409180 203.025040,496.918060 203.739029,517.535217 
	C203.954575,523.759033 203.772400,529.996582 203.772400,536.687256 
	C198.681915,535.440125 198.060410,531.560547 198.184769,528.763000 
	C198.624664,518.867493 196.668213,509.600586 192.752151,500.621796 
	C191.776306,498.384399 192.836853,496.855408 194.646408,495.531158 
	C197.238358,493.634308 199.099503,491.036346 200.855927,488.402374 
	C202.453064,486.007263 202.929108,483.057770 201.271973,480.844727 
	C198.148849,476.673828 200.055115,474.025482 203.325775,471.670471 
	C220.171829,459.540375 237.920731,458.454468 256.442230,467.526093 
	C257.879211,468.229950 258.993744,469.769684 261.195740,469.213776 
	C262.131195,464.906281 254.505402,466.120575 255.791229,461.369324 
	C254.475311,461.226074 252.856995,461.049927 250.212387,460.762054 
	C252.228607,460.064178 253.330887,459.682648 255.107529,459.228943 
	C266.836639,461.670807 276.072052,457.902130 284.505768,451.025421 
	C289.608887,446.864502 291.796204,441.001282 294.522980,435.346710 
	C297.122009,429.957092 300.443298,424.960876 299.833862,418.510437 
	C299.459991,414.553101 299.136993,410.431244 299.833099,406.571167 
	C300.802856,401.193451 296.350311,398.388184 294.992706,394.185730 
	C294.872253,393.812958 293.833008,393.628448 292.764465,394.689789 
	C301.198669,407.604919 299.057983,421.047943 293.084473,434.302673 
	C288.804718,443.798981 282.288513,451.361053 272.475525,455.714355 
	C266.875061,458.198914 260.857544,458.090027 255.001862,459.012695 
M248.183823,675.165527 
	C242.655685,675.139343 238.654648,678.962646 233.865311,680.774231 
	C229.289764,682.504883 228.540833,686.835938 229.760849,689.636902 
	C232.214798,695.270691 235.307068,700.817200 239.509674,705.533020 
	C240.850571,707.037659 242.779633,707.098694 244.104874,706.404236 
	C249.115448,703.778198 253.795227,700.496765 258.880615,698.045166 
	C263.121674,696.000610 266.586639,692.627869 270.807007,690.905212 
	C276.589844,688.544922 281.462494,684.782654 286.916809,682.018005 
	C291.040588,679.927734 294.490967,676.361572 298.655701,675.075745 
	C304.596252,673.241577 309.123474,669.515442 314.493103,666.741638 
	C312.565979,665.193787 311.148926,665.855774 309.604004,666.737915 
	C302.375488,670.865112 295.090698,674.893555 287.847809,678.995728 
	C273.947693,686.868469 260.037231,694.723694 246.189178,702.687195 
	C242.881302,704.589417 240.625122,704.810364 238.826920,700.696716 
	C237.237549,697.060730 235.050766,693.657043 232.876205,690.314392 
	C230.923340,687.312561 231.901031,685.786255 234.654877,683.925781 
	C239.331146,680.766785 244.971405,679.170898 249.680939,674.814148 
	C252.930099,673.401733 256.186188,672.000000 258.872528,669.286499 
	C243.397705,661.602417 236.611740,648.504456 238.259628,632.727295 
	C240.446365,611.790894 256.354156,603.235962 274.837372,598.264038 
	C255.719986,596.658325 245.082352,607.971008 237.217545,623.057556 
	C234.008667,629.213013 237.558594,636.671814 234.404648,643.044434 
	C239.754013,652.797058 242.920395,664.041443 253.954483,670.585144 
	C250.495316,670.827576 249.055756,672.287598 248.183823,675.165527 
M632.923523,718.284119 
	C632.658142,717.501404 632.574158,716.579590 632.097900,715.958679 
	C629.045044,711.978394 630.483887,709.358337 634.448853,707.247314 
	C637.232666,705.765076 640.156738,704.370056 642.553162,702.377014 
	C646.356262,699.214233 648.602356,700.384277 650.757080,704.196960 
	C656.977051,715.202881 663.296814,726.152893 669.629639,737.094604 
	C673.993042,744.633545 678.443420,752.122192 683.492249,760.718506 
	C683.735168,757.261841 683.673401,755.685303 682.027222,753.901978 
	C680.069458,751.781006 679.024597,748.700928 677.936462,746.021973 
	C675.987915,741.224243 672.483948,737.454590 670.342590,732.731812 
	C668.260803,728.140320 664.188599,723.983459 662.181030,719.433655 
	C659.404175,713.140564 654.980957,707.952759 652.259155,701.698181 
	C650.372314,697.362061 647.118713,697.731018 642.771973,699.358398 
	C637.918762,701.175415 634.277283,704.847534 629.509888,706.569519 
	C626.893799,707.514526 625.432129,709.553589 626.620300,711.979431 
	C628.002991,714.802368 627.714966,719.600464 633.091980,719.818787 
	C633.255249,724.695312 635.712341,728.676270 638.341248,732.483215 
	C642.580261,738.622009 644.676453,745.881714 648.983704,752.264587 
	C645.431763,753.895325 645.201355,757.185913 645.190491,760.784241 
	C641.909241,761.246521 639.971680,763.994446 636.978333,765.248413 
	C634.843994,766.142517 631.763367,769.062073 633.723145,772.479858 
	C636.849243,777.931702 640.382568,783.155762 643.876343,788.387573 
	C644.970459,790.026001 646.863647,790.206238 648.212708,788.856689 
	C651.860413,785.207581 656.286072,782.406067 659.139832,777.825867 
	C660.248962,776.045593 662.329712,773.459961 665.010193,773.915344 
	C672.039001,775.109497 676.617859,770.196289 682.150513,767.649109 
	C683.193787,767.168823 683.849609,766.449890 683.324707,765.331177 
	C682.774231,764.157837 681.688110,764.313660 680.775635,764.847717 
	C678.050171,766.442932 675.408875,768.184204 672.662781,769.741577 
	C665.744995,773.664673 667.134766,773.595764 663.271057,767.670654 
	C663.158203,767.497559 662.704895,767.546509 662.086853,767.431946 
	C659.855103,774.645813 655.203552,780.125305 649.087219,784.466370 
	C647.733765,785.427063 646.065552,787.075134 644.848999,785.102905 
	C641.693604,779.987732 637.980957,775.111389 636.057922,769.442017 
	C638.489868,767.801819 640.497742,766.620911 642.311829,765.193665 
	C649.580200,759.475647 651.878540,753.520264 648.387329,745.062744 
	C644.534241,735.728638 639.298828,727.001221 632.923523,718.284119 
M761.705627,418.841003 
	C762.763733,418.359802 763.836243,417.907867 764.877625,417.392792 
	C774.288391,412.738190 784.115845,409.645386 794.717468,411.120270 
	C817.480591,414.287018 831.737427,427.198914 837.200684,449.515961 
	C840.364929,462.441956 840.358398,475.229553 834.232239,487.520020 
	C833.155090,489.681122 830.757385,491.210846 830.955200,494.187073 
	C835.566956,495.466064 834.372803,491.252319 835.386658,489.428406 
	C838.745422,483.385742 842.109497,477.328033 841.778564,470.007477 
	C841.575623,465.518311 841.480774,460.996460 841.780762,456.518982 
	C842.208069,450.139771 838.048889,445.148529 836.729431,439.233704 
	C835.717285,434.696533 831.637085,430.525848 828.146423,426.484039 
	C820.869019,418.057709 812.174988,412.276428 801.926086,409.654510 
	C794.429932,407.736847 786.028015,407.905029 778.425720,409.736053 
	C774.808167,410.607361 771.090088,411.763763 767.420898,412.815399 
	C764.851624,413.551788 761.232971,415.009064 760.247314,419.101624 
	C754.156799,419.859100 751.588562,424.844788 748.295471,428.995789 
	C746.259338,431.562469 746.036194,435.133484 744.277832,437.503571 
	C740.713379,442.308228 739.317383,447.751617 738.465515,453.257172 
	C737.710815,458.134979 737.991394,463.252258 738.416321,468.212341 
	C738.902710,473.890930 741.154785,479.286133 742.853210,484.645081 
	C744.071350,488.488342 746.570312,492.421722 749.122314,495.773865 
	C752.156982,499.759979 754.673279,505.010284 761.191040,505.710236 
	C760.839050,507.331299 762.307983,509.039185 759.229919,510.298340 
	C750.188782,513.996826 746.474670,521.874695 744.648193,530.749268 
	C744.079407,530.662537 743.803162,528.672913 743.046753,530.318542 
	C742.087463,532.405457 741.234985,534.533569 741.290710,536.994446 
	C741.422791,542.822937 741.726501,548.695862 741.196472,554.480774 
	C740.196350,565.396423 746.969482,572.610229 752.700439,580.389465 
	C753.535339,581.522827 755.618042,582.007812 754.978882,583.868713 
	C754.259644,585.963196 752.181152,585.395752 750.649780,585.310242 
	C744.128174,584.945923 738.751953,587.812378 733.790710,591.439758 
	C732.141541,592.645569 730.099976,594.113403 729.343506,596.965881 
	C751.972900,582.920227 772.912781,585.440979 787.383484,603.737915 
	C793.011353,610.853760 795.227234,619.187256 794.211182,628.140625 
	C792.743530,641.073425 786.589661,651.163147 773.683167,657.587585 
	C779.491272,660.344788 784.155212,662.558777 788.819092,664.772766 
	C789.068054,664.355896 789.317078,663.939026 789.566101,663.522156 
	C787.769226,660.086975 782.054871,661.899475 780.456604,657.031616 
	C790.988220,647.852600 797.921631,636.599243 796.808105,621.369751 
	C796.077881,611.383118 781.754761,589.930115 774.503662,589.544800 
	C774.341003,587.841003 776.174255,588.306702 776.781738,587.448792 
	C760.199646,585.986023 748.531677,576.285950 743.482788,560.412964 
	C740.266724,550.302490 742.319275,540.675964 745.474304,530.507446 
	C745.733704,530.081238 746.046448,529.678345 746.244629,529.225342 
	C751.772156,516.594055 761.654724,508.887848 774.946106,507.008423 
	C789.251282,504.985626 801.785767,510.032593 810.507446,521.836304 
	C819.627136,534.178711 820.504700,548.129211 815.323303,562.258362 
	C810.091064,576.526001 799.499451,584.849243 785.190979,587.563171 
	C790.776855,588.840576 796.725281,587.406494 801.432190,583.752197 
	C812.277283,575.332397 819.616516,564.950012 818.820618,550.091980 
	C818.244934,539.345337 819.492310,528.643921 811.812378,519.303406 
	C805.268921,511.344971 797.264771,506.815948 787.357178,505.458282 
	C783.430359,504.920135 779.369202,505.414764 775.372986,505.303894 
	C773.827759,505.261047 771.955872,505.845612 771.163757,504.272644 
	C770.739563,502.619965 771.716248,502.253387 772.440063,501.546906 
	C779.357056,494.795135 777.743591,485.690338 772.220032,482.625641 
	C763.046448,477.535828 764.198547,468.631653 764.200012,460.529083 
	C764.200500,457.504089 763.271240,453.597992 765.705383,450.941315 
	C770.973511,445.191620 774.627991,437.062775 784.414856,437.519745 
	C785.645813,437.577209 786.317932,436.277863 787.281250,435.693634 
	C789.879822,434.117523 793.041382,433.913818 795.276978,435.592163 
	C797.116028,436.972717 799.266846,437.140045 800.870972,438.189758 
	C805.230103,441.042175 811.006531,441.812012 813.230164,448.129608 
	C814.188782,450.853027 814.733337,453.925049 816.209778,456.528809 
	C819.025085,461.493805 819.336487,466.186737 816.140869,471.342712 
	C814.757141,473.575287 813.414185,476.138367 812.526184,478.631775 
	C810.313354,484.845642 819.650696,494.898041 826.945312,494.046356 
	C822.445618,490.358398 818.164062,486.849182 813.778809,483.255005 
	C815.628235,481.134735 815.900452,478.193939 818.694641,477.790680 
	C820.576111,478.302826 820.162720,480.669434 821.931641,480.974792 
	C823.216187,481.013397 824.072632,480.218750 824.947937,479.435547 
	C832.677673,472.518677 832.242615,463.024506 832.477844,453.991272 
	C832.567017,450.568878 829.703552,447.672729 825.676331,448.222687 
	C821.879395,448.741211 822.914795,452.152100 822.828247,454.659058 
	C822.759949,456.634949 823.839294,458.911194 821.332520,460.143494 
	C819.462708,459.054047 819.752319,457.359650 819.413574,455.984833 
	C816.273987,443.242157 806.711487,434.981567 793.271484,433.477203 
	C782.509216,432.272583 768.745117,439.354401 764.181641,448.444305 
	C758.301514,460.156830 760.312378,475.378906 768.916260,484.284515 
	C775.871460,491.483612 775.870972,491.483307 770.621399,500.194580 
	C770.277527,500.765167 769.877441,501.315582 769.625793,501.925812 
	C767.881042,506.156494 765.057983,507.289703 760.617188,504.453491 
	C758.308838,502.063965 755.926392,499.741180 753.704102,497.274200 
	C738.095276,479.946411 735.681458,446.571930 751.580261,428.549500 
	C754.535278,425.199768 757.847961,422.165466 761.705627,418.841003 
M352.050171,741.783630 
	C353.938202,741.472656 356.223145,742.362549 357.532257,740.243408 
	C360.326050,735.720886 366.661255,733.805786 366.953400,727.428284 
	C366.972473,727.011475 367.394135,726.527161 367.754913,726.225159 
	C372.220703,722.485596 372.770050,716.565918 373.250305,711.893127 
	C374.140289,703.233704 370.941620,694.812256 365.848541,687.531921 
	C364.562744,685.693970 365.170258,683.077820 363.162598,681.808838 
	C357.669067,678.336426 354.239716,672.577515 347.813904,669.794128 
	C341.958771,667.257935 336.433441,664.657166 329.984344,664.673645 
	C322.453308,664.692871 322.306702,664.865784 322.321014,672.518494 
	C322.324127,674.183777 322.326294,675.849060 322.334351,677.514343 
	C322.361267,683.084290 325.326538,687.005798 330.877563,687.538269 
	C340.250214,688.437439 344.923798,694.185486 347.616241,702.397095 
	C348.141998,704.000610 348.956451,705.851440 347.064911,706.811279 
	C345.360809,707.675964 343.248077,706.899841 342.067719,705.627563 
	C334.378326,697.338989 326.107513,689.644287 317.783508,682.030334 
	C310.786652,675.630371 305.424133,672.653076 299.949066,683.413635 
	C299.875854,683.557495 299.748322,683.683167 299.622559,683.789490 
	C290.321167,691.653015 290.321991,702.451721 290.890198,713.119995 
	C291.320343,721.195496 296.136078,727.761047 300.939880,733.807495 
	C303.278625,736.751160 305.801392,740.471191 309.755005,741.532410 
	C313.056366,742.418457 315.985504,744.206726 318.767029,745.674805 
	C327.201752,750.126770 343.523743,749.876953 351.003082,743.991455 
	C351.266602,743.784119 350.913605,742.793274 351.054352,742.007263 
	C351.054352,742.007263 351.270874,741.861023 352.050171,741.783630 
M366.418060,800.386963 
	C364.398773,802.111633 363.179840,805.479370 359.511658,803.863403 
	C355.393707,802.049438 350.923767,801.387756 346.712555,799.760315 
	C342.691559,798.206299 342.712311,796.592590 344.923553,793.623413 
	C349.199524,787.881653 353.391785,782.076843 357.567047,776.261047 
	C370.187317,758.682068 382.756866,741.066589 395.401611,723.505188 
	C400.055695,717.041504 400.126862,717.090271 408.129578,719.523132 
	C411.466461,720.537537 414.739349,721.992310 418.150574,722.475220 
	C422.618500,723.107910 423.314209,725.694031 423.291016,729.468872 
	C423.205200,743.467224 423.279694,757.466614 423.290680,771.465576 
	C423.295227,777.280457 423.291443,783.095398 423.291443,788.910278 
	C433.656219,778.170166 440.627136,765.834473 450.681061,755.370361 
	C454.380951,762.126404 447.663177,768.253662 450.955627,774.031006 
	C454.106964,774.631836 456.192810,770.765503 459.267395,772.890015 
	C459.146759,773.555359 459.200897,774.121948 458.955322,774.486694 
	C448.166626,790.510010 436.531281,805.923096 425.050323,821.447327 
	C423.931824,822.959717 422.388824,823.425415 420.617157,822.888794 
	C417.115234,821.828003 413.622925,820.732666 410.146118,819.592407 
	C405.554688,818.086548 403.765137,814.895203 403.830109,810.070129 
	C404.011810,796.575745 403.927795,783.077881 403.942505,769.581360 
	C403.949799,762.873413 403.943756,756.165405 403.943756,749.457458 
	C403.485291,749.381287 403.026825,749.305115 402.568359,749.229004 
	C396.319092,758.049255 390.069855,766.869507 383.820587,775.689758 
	C384.231506,775.984680 384.642426,776.279663 385.053345,776.574585 
	C390.408417,773.193604 392.041382,766.622986 396.590118,762.488464 
	C397.794159,761.394104 398.646240,760.143677 400.177185,760.893127 
	C401.649109,761.613647 400.958221,763.110535 400.740112,764.445557 
	C399.875214,769.739197 399.988037,775.125000 400.540070,780.389526 
	C401.637146,790.851624 401.649872,801.258789 400.619629,811.707031 
	C400.220612,815.753662 402.949768,820.882324 405.091431,821.093811 
	C411.154175,821.692566 416.173584,825.825806 422.713837,824.900330 
	C429.442566,823.948120 430.924957,826.068176 430.223907,832.986267 
	C429.647766,838.671753 429.622711,843.962036 435.084778,847.639832 
	C438.313171,849.813660 439.513000,853.381165 440.686768,856.874329 
	C444.184906,867.284790 444.136414,867.072876 454.965210,865.139771 
	C464.522003,863.433716 473.772430,860.834351 482.884827,857.540588 
	C486.099304,856.378662 488.000061,852.697632 491.422729,852.691223 
	C496.111725,852.682434 499.219269,850.382385 502.185486,847.296265 
	C507.010437,842.276306 507.161743,842.222717 511.249298,848.009338 
	C513.273193,850.874451 515.096130,850.987671 517.097290,848.368530 
	C519.520020,845.197693 521.860168,841.949707 524.014832,838.593140 
	C525.338013,836.531799 525.800293,833.797974 524.255432,831.940308 
	C519.430847,826.138733 518.405884,818.532288 514.482910,812.374573 
	C511.999115,808.475891 510.521820,804.328186 509.974396,799.796936 
	C509.615112,796.823303 509.323608,793.841553 508.967010,790.867554 
	C508.422852,786.329163 505.141998,783.916626 501.293976,783.498169 
	C497.309601,783.064880 496.553619,786.849365 495.916931,790.054871 
	C495.654266,791.377197 496.103333,793.175171 494.019867,793.580505 
	C483.620331,778.722046 491.720276,761.464905 487.590424,744.756348 
	C487.196564,747.041870 486.986481,748.260803 486.766235,749.538757 
	C482.457550,747.509583 478.647278,747.494080 474.714661,749.979797 
	C472.354065,751.471863 469.593201,752.368896 466.948334,753.363525 
	C463.464630,754.673889 460.196899,753.072693 458.484070,750.632690 
	C456.433136,747.710999 458.068726,744.197205 460.059479,741.422058 
	C461.805786,738.987610 463.504852,736.941956 467.439240,738.243652 
	C473.354980,740.200806 479.510742,741.453247 485.634369,744.209412 
	C485.499847,739.722412 481.987610,739.013123 479.568939,738.621826 
	C476.136139,738.066528 472.993225,737.272339 469.732269,735.980469 
	C466.145569,734.559509 461.969482,734.006653 458.973999,738.022766 
	C456.163544,741.790833 453.522858,745.766296 450.225189,749.069092 
	C446.354919,752.945312 444.869690,758.199890 441.537445,762.322876 
	C438.812531,765.694397 435.841553,768.829529 433.410583,772.494568 
	C431.560028,775.284424 429.687378,778.598145 426.042969,779.799683 
	C424.169891,777.926514 424.806183,775.826782 424.796753,773.918457 
	C424.720276,758.419556 424.727356,742.920166 424.660675,727.421204 
	C424.638763,722.329407 421.978638,719.612610 416.809570,719.343994 
	C414.784912,719.238708 413.172241,718.812439 411.416656,717.422058 
	C407.440796,714.273193 395.398987,716.159485 394.210266,720.410339 
	C393.207642,723.995605 391.243805,726.208679 388.882294,728.529297 
	C381.524231,735.760132 377.433105,745.362854 370.903534,753.312073 
	C366.421295,758.768799 362.784882,765.269409 358.051422,770.680786 
	C353.329254,776.079224 351.403198,783.386902 345.769501,787.996521 
	C342.397217,790.755798 342.093658,794.212585 342.258087,798.137146 
	C342.387024,801.215759 343.393036,802.828613 346.683136,802.684265 
	C348.972656,802.583801 350.808655,803.243530 352.953705,804.679382 
	C356.462311,807.027954 361.047729,805.966614 365.062378,805.204712 
	C367.521362,804.737854 366.235657,801.729736 367.684692,799.778503 
	C371.433716,798.277588 372.797852,795.278015 373.392822,791.792358 
	C370.769287,794.211853 368.200104,796.635132 366.418060,800.386963 
M710.195129,300.707642 
	C711.096375,304.640533 714.245728,305.559174 717.615051,306.203827 
	C715.812988,303.228638 713.643921,300.717804 709.458191,299.554474 
	C704.501404,296.245605 699.657043,297.375092 694.861084,299.942200 
	C691.400024,301.794800 688.968201,304.785614 686.438965,307.657928 
	C680.394348,314.522705 674.365845,321.401733 668.330200,328.274445 
	C665.889282,331.053955 664.442200,330.181030 663.105103,327.136353 
	C664.612915,326.377258 665.792969,326.029724 666.655579,325.304565 
	C669.750305,322.702850 672.050964,318.804749 671.051086,315.334229 
	C669.893616,311.316864 665.790588,313.544769 662.823181,314.192963 
	C660.977783,314.596039 659.044250,314.819214 657.731262,313.184052 
	C656.302856,311.405273 657.573853,309.679413 658.411499,308.102905 
	C659.030762,306.937531 659.887268,305.881348 660.735474,304.857178 
	C670.611877,292.931580 680.422180,280.949677 690.428650,269.133972 
	C696.409607,262.071594 696.550293,262.192535 704.079468,268.080475 
	C705.260193,269.003784 706.374634,270.043335 707.653931,270.803162 
	C712.022034,273.397369 713.564148,276.327240 709.102844,280.252441 
	C708.959534,280.378571 709.130066,280.861542 709.165771,281.327759 
	C711.033325,281.894196 712.875549,282.140106 715.151672,280.978943 
	C712.635986,278.356140 714.919678,274.205048 711.962952,272.194122 
	C708.487488,269.830383 706.399414,266.262268 703.376038,263.523651 
	C699.378174,259.902313 692.879272,260.781372 690.657227,265.678864 
	C690.095703,266.916565 689.224915,267.794067 688.448059,268.822937 
	C685.574707,272.628448 681.571411,275.294281 678.588013,278.911346 
	C671.457214,287.556671 664.477112,296.301392 656.513611,304.243713 
	C652.425110,308.321350 648.294678,312.793579 649.333984,319.445526 
	C650.015930,323.810303 653.160706,326.756470 656.174805,330.165985 
	C653.432678,331.227692 648.912476,329.335052 649.490295,334.281372 
	C650.135498,339.804260 651.233154,345.254059 656.618469,348.451355 
	C662.825439,352.136383 666.891479,357.873138 670.950623,363.567017 
	C675.008484,369.259094 672.992554,375.268646 666.273987,376.516876 
	C659.535278,377.768829 653.617065,380.470001 648.070251,384.291443 
	C644.933044,386.452728 641.459839,387.572937 637.658508,386.832489 
	C625.940674,384.550049 616.794922,377.990936 609.975464,368.561462 
	C605.414734,362.255219 602.309021,354.916107 598.016113,348.392029 
	C592.354370,339.787781 586.245056,331.578705 578.366455,324.639374 
	C567.038635,314.662079 556.535217,303.805634 549.548645,290.118805 
	C548.606018,288.272095 547.281616,286.927673 545.383362,285.997192 
	C540.105591,283.410095 535.079346,282.510376 530.404358,287.897919 
	C531.502502,284.266449 529.834229,280.689056 531.718018,277.217926 
	C534.602295,277.884583 537.725830,276.931213 540.331787,278.723480 
	C543.643127,281.000885 565.671204,282.043030 568.518616,279.363708 
	C570.634705,277.372528 573.853760,278.919891 575.244202,276.779572 
	C578.250061,272.152679 585.370300,271.688873 585.893188,265.177673 
	C587.434387,265.593811 587.721741,266.335419 588.171143,267.058441 
	C591.162415,271.870514 591.515198,277.621918 593.602966,282.803558 
	C595.327637,287.084381 599.074463,288.594116 601.028320,291.973816 
	C603.846802,296.849030 608.002686,299.390991 613.919067,300.012207 
	C613.919067,300.012207 614.259399,300.285217 614.073181,300.844269 
	C613.242859,303.489441 615.247864,303.233917 616.821289,303.755005 
	C620.765747,305.061371 624.781006,306.356476 628.570190,307.859528 
	C631.547485,309.040527 634.282898,309.836151 637.004639,308.994507 
	C640.148560,308.022369 643.197998,307.145782 646.491882,306.633575 
	C652.154236,305.753113 653.234558,301.761841 649.952332,296.998291 
	C647.519714,293.467865 648.489868,289.657532 649.990112,284.328308 
	C653.086975,289.427917 657.985352,286.501892 661.187195,289.505798 
	C661.971436,290.241547 663.554565,289.351074 664.833618,288.044403 
	C667.912781,284.898712 667.860107,280.695129 669.581726,277.235565 
	C673.281982,269.799774 672.969727,261.668884 670.848389,254.909775 
	C668.572571,247.658417 665.211426,239.842743 657.613953,235.154083 
	C653.084045,232.358536 648.560791,227.238876 644.073792,227.029114 
	C636.301208,226.665771 628.491821,219.119202 620.568054,226.238129 
	C612.550903,224.733093 608.369690,232.091675 601.988403,234.435593 
	C600.505371,234.980347 598.690491,236.692062 598.362244,238.930862 
	C598.181519,240.163269 598.452515,241.989548 596.491577,241.839722 
	C594.362488,241.677063 594.633789,239.732117 594.693359,238.329895 
	C594.931885,232.712967 592.143372,227.754044 590.293823,222.905151 
	C588.458984,218.094635 583.721436,214.360275 580.140381,210.255646 
	C576.694702,206.306198 571.875061,205.254623 567.141541,203.438599 
	C558.268616,200.034439 550.062256,200.650360 541.110352,203.508759 
	C538.491394,202.120865 536.687073,198.324539 532.553711,198.339279 
	C527.721985,198.356506 522.890076,198.317566 518.058289,198.326233 
	C516.335938,198.329330 515.015869,198.539322 514.312012,200.698746 
	C510.726624,211.698792 512.084534,223.419144 508.717072,234.609238 
	C506.402222,242.301514 509.166992,251.087708 506.099335,259.214813 
	C503.847656,265.180298 506.254028,271.866699 504.497894,278.679291 
	C502.740997,275.783661 501.808838,272.982178 499.883606,271.357239 
	C496.625183,268.606964 497.807251,265.300690 499.306976,263.351105 
	C502.426270,259.296143 502.676056,254.414703 504.142273,250.001373 
	C507.001465,241.395081 503.150513,233.053253 501.244904,224.710052 
	C501.116394,224.147400 500.271942,223.785278 499.981262,223.216980 
	C496.667267,216.738083 491.440521,212.271881 485.560333,208.100952 
	C479.182495,203.577011 471.170654,205.609955 464.757874,201.864929 
	C464.463043,201.692734 463.785706,202.036713 463.351196,202.263962 
	C459.338898,204.362320 454.991638,204.175476 450.662933,204.213318 
	C448.680878,204.230652 446.669556,204.152969 444.852112,205.270309 
	C438.618286,209.102814 432.825500,213.367645 427.907074,218.939514 
	C422.804108,224.720444 420.803375,231.564301 419.251282,238.775192 
	C417.760162,245.702835 419.576996,252.028122 422.026215,258.420197 
	C426.584991,270.317963 433.608215,279.217560 447.236206,280.822693 
	C448.017120,280.914673 449.269653,281.107025 449.448578,281.577484 
	C451.470795,286.894775 456.012848,284.200623 459.372681,284.546997 
	C463.092926,284.930573 467.582275,285.901001 470.493225,283.215271 
	C474.225769,279.771515 478.006653,281.149384 482.617065,280.978363 
	C476.114288,286.259949 470.255585,291.064240 464.347321,295.806824 
	C454.875977,303.409546 445.132568,310.357513 431.994415,309.130005 
	C430.889496,309.026764 429.649384,309.385315 428.601929,309.833099 
	C425.094635,311.332581 421.456146,311.137878 417.778259,311.035370 
	C412.830750,310.897369 407.607758,306.143219 402.980408,311.843353 
	C398.861603,310.550964 394.800903,311.153473 390.742218,312.172913 
	C390.678070,312.189026 390.466858,311.619629 390.333405,311.319092 
	C393.379272,307.465698 394.294586,302.584473 396.349182,298.259888 
	C398.285065,294.185150 395.971954,290.520905 391.451294,289.148010 
	C386.542786,287.657349 381.457123,287.188171 375.997101,286.982635 
	C375.997101,286.982635 375.671173,286.610931 375.899902,285.997253 
	C376.806396,285.300079 377.844727,284.721436 378.596680,283.885284 
	C381.904022,280.207458 387.692444,278.327240 386.747711,271.586090 
	C386.204254,267.708069 382.918549,266.415283 380.870605,264.045105 
	C374.872192,257.102844 367.827423,251.877319 357.928986,252.239059 
	C352.936096,252.421555 347.931030,252.249130 342.932281,252.308121 
	C341.619171,252.323624 340.043304,252.186737 339.039276,252.827209 
	C329.991180,258.598846 320.377258,262.828766 315.113434,273.992737 
	C307.932709,289.222107 308.234192,303.889282 318.470947,316.519165 
	C321.454468,320.200165 323.947998,323.699615 327.994659,326.603607 
	C331.815552,329.345673 335.096222,331.858612 339.895996,331.826965 
	C344.061707,331.799500 348.260620,331.538239 352.386383,331.956696 
	C358.648132,332.591888 364.897888,334.057404 370.282745,329.180389 
	C370.602295,328.890991 371.457031,329.192596 373.046143,329.262360 
	C368.714264,331.532837 367.549347,336.451843 364.063477,337.396515 
	C358.060150,339.023376 356.917023,342.919159 356.460907,348.063477 
	C356.070099,352.471588 354.771515,356.696136 350.720612,359.216736 
	C345.164978,362.673615 338.210022,362.979950 333.107971,367.507263 
	C331.272766,364.706390 332.228516,362.135468 331.952911,359.721680 
	C331.694763,357.460571 331.322113,355.608398 329.700928,353.509399 
	C324.254944,346.458282 321.383301,337.612976 315.408295,330.980225 
	C312.894684,328.189880 312.655487,324.877991 310.997742,321.973846 
	C306.301147,313.746094 299.899811,306.585358 296.213654,297.712891 
	C295.004395,294.802277 292.386993,292.937164 288.484528,293.896484 
	C279.766754,296.039612 273.248810,311.038666 278.985138,318.115662 
	C284.765625,325.247101 287.070221,334.253784 293.024872,341.147095 
	C294.729797,343.120758 295.566315,345.659760 295.518524,348.339203 
	C294.842590,348.650574 294.405121,349.005890 293.942413,349.042511 
	C284.590088,349.782928 276.177673,344.190674 266.808167,345.001038 
	C262.806427,339.945496 257.277130,343.136719 252.481339,342.381409 
	C251.500732,342.226990 250.156799,342.471313 249.903610,343.495941 
	C248.703644,348.352295 244.254715,350.979309 242.144852,355.278503 
	C238.483505,362.739044 240.008057,365.824005 248.518600,366.630249 
	C249.840317,366.755432 251.187775,366.589844 252.515106,366.679840 
	C254.493271,366.813934 257.254242,366.290924 258.307220,367.378571 
	C264.230255,373.496643 272.565308,370.323303 279.559052,373.104370 
	C285.458344,375.450134 292.537811,378.643372 299.805023,376.813995 
	C300.093018,376.741516 300.610168,376.829987 300.751068,377.031708 
	C304.868378,382.926727 311.036835,380.063873 316.370911,380.696625 
	C319.510162,381.069031 321.824371,380.179962 324.092560,377.488678 
	C326.076813,375.134277 326.715973,371.679626 329.706879,370.235199 
	C330.861725,370.462891 331.944366,370.935333 331.922150,372.053955 
	C331.779480,379.253174 333.791046,386.817322 328.427887,393.172424 
	C325.038757,397.188324 324.393555,401.766602 325.662445,406.793671 
	C328.869568,419.499847 328.172760,432.781158 332.114716,445.515564 
	C334.637299,453.664612 333.361725,462.665680 332.229156,471.327820 
	C330.964447,481.000580 333.252197,490.567444 333.742767,500.187653 
	C334.053314,506.277740 336.047455,511.173859 340.067627,515.441223 
	C342.522430,518.046997 344.487885,520.869263 345.032990,524.486816 
	C345.727020,529.092896 348.002899,532.872742 350.871368,536.453125 
	C357.306580,544.485657 364.296967,552.162781 367.632629,562.242676 
	C368.420746,564.624390 370.169769,566.500244 371.893738,568.348450 
	C376.005707,572.756836 380.720612,576.418274 385.507111,580.051941 
	C396.495239,588.393555 406.007477,598.639221 418.300537,605.322571 
	C419.982941,606.237244 421.339935,607.914062 422.579224,609.453918 
	C431.227600,620.199829 439.302368,631.477417 451.408661,638.861145 
	C453.063629,639.870605 454.357880,641.547241 455.654266,643.056641 
	C464.201935,653.008789 471.792389,663.793945 481.130737,673.048950 
	C490.897064,682.728027 494.352997,696.476318 503.264587,706.691040 
	C504.369904,707.957947 504.642975,710.058350 505.021759,711.832336 
	C506.314087,717.884155 509.015747,723.057068 513.710938,727.208679 
	C517.976257,730.980286 521.772827,735.192688 524.239685,740.412720 
	C526.034851,744.211304 528.326721,747.607422 531.222351,750.691956 
	C537.218628,757.079163 541.519165,764.591736 544.630859,772.730286 
	C548.714539,783.410767 559.643066,786.835205 568.476013,779.800171 
	C570.915466,777.857239 572.767944,777.167358 575.461060,779.160034 
	C578.265381,781.234802 580.928528,780.910767 582.172913,777.294861 
	C583.304871,774.006042 584.266968,770.619507 584.859070,767.198914 
	C585.211609,765.162598 585.794861,762.681213 584.164856,760.955383 
	C582.505737,759.198792 580.593506,762.067444 578.410034,761.178589 
	C579.752197,759.953552 581.541748,759.321350 581.753601,757.431335 
	C581.936523,755.798950 581.616821,753.929626 582.309082,752.565857 
	C585.536621,746.207336 583.157532,736.922363 577.322449,733.188477 
	C574.942017,731.665222 572.059692,733.000305 569.538330,731.320374 
	C572.410095,728.296936 575.928589,728.159363 579.286560,729.122253 
	C583.990112,730.470947 585.745972,727.928345 586.874023,724.240479 
	C587.699341,721.542114 588.454346,718.802246 588.958496,716.029602 
	C590.235596,709.005981 594.125244,706.778748 603.919250,705.619507 
	C605.226685,705.464722 606.624268,705.789490 607.780640,704.985840 
	C614.380249,700.399353 620.356079,695.400330 624.045471,687.840698 
	C628.388733,678.941345 630.282104,669.242615 634.049377,660.177551 
	C636.281982,654.805359 638.931335,649.316101 644.110168,646.889160 
	C657.672424,640.533630 664.295349,627.347168 674.397156,617.630127 
	C675.970520,616.116699 676.545105,613.908447 676.942200,611.739563 
	C678.404602,603.752380 681.877808,596.506714 685.839844,589.577759 
	C693.427734,576.307861 699.056580,562.318115 700.458618,547.097900 
	C701.456665,536.263916 702.246521,525.392334 697.369141,514.707764 
	C694.061707,507.462372 695.280701,499.612000 701.225098,493.342865 
	C703.215027,491.244171 704.344116,488.710907 705.591919,486.145264 
	C708.174316,480.835480 705.545227,475.624176 705.774963,470.375854 
	C706.339783,457.474731 705.275513,444.972931 697.475586,433.839996 
	C693.041260,427.510956 694.521851,420.708466 697.979004,414.419464 
	C700.130249,410.506134 702.802612,406.857269 705.462463,403.253021 
	C707.284851,400.783417 710.584900,398.948608 708.623291,395.151154 
	C707.228149,392.450165 709.092224,389.001129 706.227295,386.330811 
	C715.612610,395.238220 724.765320,396.021484 733.715454,386.531982 
	C736.570312,383.505035 736.756165,371.163239 733.941956,367.854584 
	C724.639832,356.917816 715.048889,359.799408 705.727051,368.548065 
	C704.791748,365.618530 705.926819,364.076111 706.938171,362.620026 
	C710.865112,356.966370 711.747192,351.083069 708.814087,344.696503 
	C708.059875,343.054382 707.051758,341.023621 707.409973,339.457153 
	C709.906494,328.539734 704.099365,324.169617 694.824524,320.571533 
	C685.383606,316.908997 685.172119,314.873749 691.310547,307.145935 
	C693.652832,304.197205 696.215393,300.433380 700.535156,299.876068 
	C703.627441,299.477081 706.830994,299.940460 710.195129,300.707642 
M796.452820,537.186951 
	C791.882385,530.894470 785.211243,529.316895 778.032471,529.317139 
	C762.782166,529.317688 757.208801,544.555786 762.866638,556.055420 
	C767.333374,565.134155 781.290955,568.065674 791.413330,562.752014 
	C799.195740,558.666748 801.649658,547.373779 796.452820,537.186951 
M739.927063,615.443176 
	C732.784912,625.739563 733.896057,634.962036 743.138123,642.094910 
	C754.734985,651.045288 771.670288,645.841614 773.783813,632.678467 
	C775.281982,623.348511 772.007812,617.053589 763.157654,612.248169 
	C754.528076,607.562683 747.376892,608.379456 739.927063,615.443176 
M284.148651,655.803589 
	C285.441620,655.057922 286.779572,654.379883 288.020233,653.555481 
	C295.922638,648.304077 299.037048,639.793701 295.920471,632.074158 
	C292.556793,623.742615 284.623108,618.977356 276.607666,620.474243 
	C266.386108,622.382996 258.555511,630.190186 258.280304,638.746704 
	C257.829041,652.776306 269.353271,660.731506 284.148651,655.803589 
M311.464783,623.376343 
	C313.575409,628.340515 313.233368,633.702759 313.499908,639.596985 
	C318.614410,636.669861 320.509796,639.591553 322.312958,643.126892 
	C323.972015,646.379700 325.953918,649.468018 327.797546,652.626465 
	C329.063934,654.795959 328.698517,656.248657 326.225220,657.327698 
	C322.636017,658.893677 319.225891,660.830994 316.157623,663.430603 
	C317.576294,665.049927 318.816223,664.810181 319.568298,663.408081 
	C320.342529,661.964539 321.518677,661.895752 322.846680,661.622620 
	C329.149841,660.326111 332.083618,653.215027 328.139313,648.174622 
	C326.919037,646.615173 326.201477,644.830566 325.095703,643.427490 
	C322.644653,640.317322 322.398682,634.474609 316.258057,635.899841 
	C314.834961,630.994873 316.248932,626.302551 313.133362,621.779907 
	C311.307495,619.129517 310.495667,614.178894 308.663147,611.566895 
	C303.641968,604.409729 293.709747,596.341675 282.387512,598.663147 
	C296.721344,600.933960 305.208130,608.962585 311.464783,623.376343 
M240.269180,408.966461 
	C234.913696,419.390350 238.602768,429.870819 246.902313,432.143280 
	C250.504654,421.838409 254.116776,411.505524 257.896606,400.692963 
	C249.632690,399.615387 244.679276,402.964264 240.269180,408.966461 
M720.093750,711.514099 
	C723.404236,706.840820 724.100464,701.750916 722.372375,696.344604 
	C721.418579,693.360840 719.702881,692.661194 717.262634,694.994812 
	C715.458557,696.720093 713.589050,698.381775 711.855896,700.175354 
	C706.720703,705.489441 701.638489,710.854797 696.457825,716.281555 
	C704.919373,722.022583 713.131592,720.354553 720.093750,711.514099 
M797.527100,423.119934 
	C799.209412,428.445343 805.901245,432.323761 812.326416,431.697235 
	C813.243774,426.013550 810.250671,420.479004 804.997681,418.945190 
	C801.757507,417.999115 798.253418,417.587402 797.527100,423.119934 
M727.787964,297.599518 
	C732.026489,295.652161 733.972717,292.591125 732.986145,289.423828 
	C731.664917,285.182159 730.204285,284.280243 726.099976,285.171814 
	C731.536438,290.824463 731.536438,290.824463 727.787964,297.599518 
M375.071533,789.034058 
	C375.184326,789.704041 374.676117,790.600098 376.476715,791.250793 
	C375.294617,787.326843 378.884277,787.135315 380.455231,785.251587 
	C382.124481,783.250000 383.963440,781.153320 382.615448,777.517944 
	C379.585236,781.264771 376.819183,784.431885 375.071533,789.034058 
M743.203369,702.839966 
	C743.330994,702.945190 743.445618,703.105957 743.590027,703.139771 
	C743.725952,703.171631 744.006592,703.102844 744.030396,703.021667 
	C745.208801,699.005188 744.864441,695.064819 743.437744,690.784302 
	C742.993591,694.899292 741.313721,698.553650 743.203369,702.839966 
z"/>
<path fill="#000000" opacity="1.000000" stroke="none" 
	d="
M412.641357,257.400543 
	C417.239624,267.588074 421.646332,277.446655 426.189087,287.242157 
	C427.570343,290.220551 426.788025,291.825348 423.797791,292.958618 
	C420.076172,294.368958 416.408203,295.954865 412.826782,297.691254 
	C409.441223,299.332733 407.481812,298.713409 405.868774,295.077698 
	C395.426880,271.542236 384.802673,248.087646 374.245911,224.603058 
	C372.544861,220.818802 371.013214,216.951935 369.162781,213.243225 
	C367.551605,210.014114 368.450867,207.848404 371.405334,206.208145 
	C371.841553,205.965973 372.274323,205.713684 372.726654,205.504974 
	C389.603790,197.717529 385.632263,197.472992 392.564056,212.501099 
	C399.377502,227.272614 405.869141,242.192551 412.641357,257.400543 
z"/>
<path fill="#000000" opacity="1.000000" stroke="none" 
	d="
M680.774780,706.840942 
	C680.236816,701.044189 684.181763,697.235718 686.147095,692.589722 
	C687.951294,688.324707 692.057556,687.682556 694.500610,684.651672 
	C696.300415,682.418945 700.066772,683.708130 703.943481,684.088623 
	C697.848267,693.536804 689.312317,699.732178 681.712708,707.220581 
	C681.287903,707.273682 681.141052,707.150269 680.774780,706.840942 
z"/>
<path fill="#000000" opacity="1.000000" stroke="none" 
	d="
M591.236267,244.684998 
	C589.432678,258.008972 583.940063,268.386505 572.153259,274.978333 
	C559.615967,281.989838 540.565002,279.973602 531.802063,270.367157 
	C531.367920,269.891205 530.775513,269.559479 530.034058,268.989258 
	C527.738892,272.984314 528.882324,277.866974 526.499146,281.624268 
	C524.813110,281.069641 524.514587,279.739502 524.477844,278.719330 
	C524.211121,271.310852 519.481018,269.083710 513.154602,269.096741 
	C508.522369,269.106262 507.671600,267.208649 508.272858,262.893005 
	C510.931274,243.813217 513.293152,224.691818 515.708740,205.578690 
	C516.353394,200.478073 517.865662,199.260162 522.965149,200.139023 
	C525.585693,200.590637 528.197327,201.095306 530.821899,201.521240 
	C537.107910,202.541382 537.114075,202.532990 536.851990,208.963837 
	C540.372681,207.863129 543.199829,205.545334 546.733765,204.738510 
	C568.097046,199.861160 592.515686,214.835480 591.283752,241.229614 
	C591.237244,242.226212 591.263794,243.226196 591.236267,244.684998 
M534.766479,250.500443 
	C535.898376,252.729584 537.172485,254.810501 539.165039,256.448761 
	C545.684753,261.809326 554.481934,262.276764 561.363159,257.519867 
	C567.886108,253.010635 571.147339,241.431229 568.343201,233.217560 
	C565.845398,225.900955 560.350952,222.344482 553.136414,221.411636 
	C546.358337,220.535263 540.550659,223.009613 536.770569,228.766327 
	C532.510193,235.254562 532.217651,242.446335 534.766479,250.500443 
z"/>
<path fill="#000000" opacity="1.000000" stroke="none" 
	d="
M613.742004,299.884766 
	C610.548584,296.663086 606.828552,294.446014 603.616882,291.535065 
	C582.471619,272.369812 590.935303,238.331955 617.751404,228.901718 
	C632.264099,223.798157 650.271606,229.544205 661.773499,242.796585 
	C670.743591,253.132004 671.793884,269.360168 664.656311,283.160736 
	C662.909546,286.538147 661.213806,287.428467 657.645203,285.625214 
	C646.663086,280.075775 635.544434,274.796051 624.460754,269.449005 
	C623.275635,268.877258 621.971558,268.551880 620.360352,268.053345 
	C619.997925,267.994476 620.017456,268.007660 620.017456,268.007660 
	C617.935791,266.719910 616.175293,264.776215 613.457153,264.788361 
	C611.453247,269.093597 612.970459,275.681854 617.445618,279.884735 
	C623.219849,285.307648 630.056885,288.670776 638.190552,287.796173 
	C643.330322,287.243469 645.669922,289.146881 646.699829,294.139404 
	C648.601685,303.359283 647.680786,304.670380 638.041870,305.223541 
	C629.859131,305.693176 622.325684,303.411926 614.603394,300.279175 
	C614.259399,300.285217 613.919067,300.012207 613.742004,299.884766 
M624.344238,246.542999 
	C622.153625,247.892563 619.597412,248.889526 618.825867,252.087982 
	C628.836426,257.180603 638.572327,262.323029 649.053101,266.531616 
	C649.403564,265.405426 649.698608,264.812653 649.763733,264.195648 
	C651.178528,250.796600 639.177551,242.067535 624.344238,246.542999 
z"/>
<path fill="#000000" opacity="1.000000" stroke="none" 
	d="
M492.073486,268.074738 
	C477.669403,280.770172 461.876251,284.952515 443.854034,277.890198 
	C421.087158,268.968597 414.876709,236.824921 431.103912,219.436996 
	C444.835388,204.723312 472.678040,201.039383 487.917267,213.023392 
	C504.931061,226.402969 507.131134,251.971725 492.073486,268.074738 
M474.252106,258.838257 
	C481.762238,253.138779 481.097046,245.332596 479.448029,237.499557 
	C478.007843,230.658478 470.910583,224.470642 464.065094,223.449448 
	C457.482361,222.467422 449.670593,226.492264 446.046234,232.733215 
	C441.815765,240.017853 443.555481,252.075485 449.718811,258.187073 
	C455.638794,264.057281 465.153412,264.507324 474.252106,258.838257 
z"/>
<path fill="#000000" opacity="1.000000" stroke="none" 
	d="
M336.911377,328.367126 
	C315.822601,319.061493 306.968262,298.114380 316.180176,278.010712 
	C322.756958,263.657745 334.743652,255.306107 350.487488,254.090729 
	C363.900360,253.055283 374.548187,259.143066 382.357208,270.185791 
	C384.635101,273.406891 384.508209,275.520966 381.140594,277.996429 
	C369.349396,286.663849 357.752838,295.596161 346.090637,304.438782 
	C344.930023,305.318787 343.825989,306.273438 342.255707,307.551514 
	C346.564484,311.627167 351.387787,312.720062 356.293152,311.316437 
	C364.142853,309.070343 370.829498,304.971710 374.559937,297.098633 
	C377.553284,290.781219 385.715576,289.077881 391.494232,293.323059 
	C393.593536,294.865265 392.829803,296.869141 392.259521,298.765930 
	C387.639465,314.132111 376.347137,322.784454 362.129608,328.301941 
	C353.944946,331.478210 345.593689,331.866119 336.911377,328.367126 
M332.535706,284.160706 
	C331.506531,288.360352 330.694153,292.533752 334.116455,296.681854 
	C343.600311,290.788330 351.880951,283.576172 360.623383,277.237183 
	C359.729828,274.746277 358.103607,273.950439 356.427551,273.182007 
	C347.408386,269.047119 338.058258,273.100006 332.535706,284.160706 
M381.129974,305.794800 
	C380.954468,304.419098 382.095490,302.876007 380.435944,301.469666 
	C377.274017,302.215698 377.098633,305.602264 375.379272,307.591248 
	C374.317352,308.819733 373.446991,310.769836 375.262238,311.944977 
	C377.156219,313.171021 378.648895,311.614136 379.898804,310.245697 
	C380.843414,309.211456 381.009644,307.885437 381.129974,305.794800 
z"/>
<path fill="#000000" opacity="1.000000" stroke="none" 
	d="
M298.773254,307.308289 
	C308.957825,324.495392 318.887695,341.409302 329.008820,358.208008 
	C330.620972,360.883789 330.641510,362.672241 328.819397,365.308563 
	C318.717377,379.924774 318.779663,380.063629 301.528717,376.009827 
	C283.418976,371.754242 265.345490,367.343628 247.269623,362.945312 
	C242.645279,361.820099 242.042267,360.227142 244.917450,356.412201 
	C256.819794,340.619629 250.696411,342.915253 271.032257,347.541565 
	C276.537994,348.794128 281.969696,350.368896 287.460846,351.689911 
	C292.891663,352.996429 298.354645,354.169189 305.112640,355.696472 
	C299.537750,346.469421 294.554352,338.298950 289.652191,330.080017 
	C286.500519,324.795990 283.527283,319.405121 280.351349,314.136108 
	C279.198669,312.223755 278.834259,310.414429 280.137665,308.564728 
	C283.353333,304.001190 286.647156,299.492706 290.089478,294.712250 
	C294.002411,298.576935 295.738953,303.175659 298.773254,307.308289 
z"/>
<path fill="#000000" opacity="1.000000" stroke="none" 
	d="
M725.161621,382.814117 
	C726.320618,374.020233 721.853027,369.497223 714.005981,367.593536 
	C717.386414,362.959290 722.700256,362.422485 728.087891,365.865875 
	C736.086975,370.978333 736.602722,382.842438 728.960571,387.664703 
	C727.246033,388.746643 725.086609,390.726685 723.196960,388.618713 
	C721.189636,386.379395 723.811707,384.807129 725.161621,382.814117 
z"/>
<path fill="#000000" opacity="1.000000" stroke="none" 
	d="
M376.160309,287.168274 
	C372.122559,292.857697 370.870819,300.644379 364.243774,304.172028 
	C359.711670,306.584503 355.509949,310.279572 348.631378,310.304169 
	C354.874878,298.419586 365.618286,293.318634 375.371826,286.704041 
	C375.671173,286.610931 375.997101,286.982635 376.160309,287.168274 
z"/>
<path fill="#000000" opacity="1.000000" stroke="none" 
	d="
M619.990112,267.985077 
	C619.854553,269.174255 618.889771,270.589233 620.972656,271.149475 
	C626.098450,272.528259 630.525208,275.466034 635.318420,277.553192 
	C637.518066,278.511017 638.399963,281.478210 641.391113,281.053009 
	C642.218750,280.935333 642.442139,282.167786 642.230469,283.041779 
	C641.987061,284.046448 641.110413,284.079742 640.300720,284.266571 
	C630.394043,286.552307 620.777649,281.896210 616.776245,272.515625 
	C616.148376,271.043793 614.195984,270.973572 614.205383,269.016266 
	C615.946899,268.771423 617.676941,268.528168 619.712219,268.146301 
	C620.017456,268.007660 619.997925,267.994476 619.990112,267.985077 
z"/>
<path fill="#000000" opacity="1.000000" stroke="none" 
	d="
M581.175903,750.423096 
	C580.635132,751.237000 580.255066,751.765442 579.569763,752.718384 
	C577.285950,748.750061 578.278137,744.779663 577.722900,739.891907 
	C581.295959,743.334167 582.808044,746.234680 581.175903,750.423096 
z"/>
<path fill="#000000" opacity="1.000000" stroke="none" 
	d="
M662.460693,331.878357 
	C666.655945,332.296997 662.820496,334.478333 664.772034,336.013092 
	C661.011719,335.138794 659.023376,333.946503 658.072571,330.967194 
	C659.593079,331.304596 660.886536,331.591614 662.460693,331.878357 
z"/>
<path fill="#000000" opacity="1.000000" stroke="none" 
	d="
M454.658081,785.158081 
	C456.219452,784.598328 457.645599,784.258179 459.153748,783.898499 
	C457.771118,780.465210 460.831848,780.206055 462.824219,778.451294 
	C462.824219,787.862183 462.824219,796.745422 462.824219,805.628723 
	C461.629425,799.577637 463.162262,793.105225 459.124298,787.316284 
	C457.765900,786.971680 454.929901,788.998718 454.658081,785.158081 
z"/>
<path fill="#000000" opacity="1.000000" stroke="none" 
	d="
M481.236481,763.134277 
	C481.269409,761.373962 481.479858,759.732727 482.999359,759.584045 
	C485.909058,759.299377 486.114441,757.249573 486.304962,754.604065 
	C488.465118,760.648193 484.992981,765.554199 485.343384,771.303162 
	C480.575653,769.909790 482.535217,765.911621 481.236481,763.134277 
z"/>
<path fill="#000000" opacity="1.000000" stroke="none" 
	d="
M350.951172,742.087402 
	C340.903259,746.770569 330.606537,747.797607 320.287018,744.034485 
	C295.492706,734.993164 282.000580,704.343811 304.004852,681.116394 
	C306.837128,678.126648 308.751648,677.718689 312.070251,680.891113 
	C322.657196,691.011658 333.639557,700.719360 344.507080,710.544617 
	C345.575562,711.510620 346.544861,712.770142 348.164581,712.911255 
	C351.740265,707.646240 350.759125,699.289856 345.707520,693.766235 
	C341.139954,688.771851 335.899506,684.663940 328.864563,683.915344 
	C325.089050,683.513672 323.685516,681.589355 323.921051,677.988892 
	C324.029388,676.332458 323.869385,674.659729 323.862122,672.994263 
	C323.831726,666.050415 324.605591,665.185608 331.581787,665.886780 
	C350.657928,667.804138 376.104279,691.263489 369.365356,718.063721 
	C366.819946,728.186707 360.176575,735.602722 351.473511,741.639282 
	C351.270874,741.861023 351.054352,742.007263 350.951172,742.087402 
M322.758820,708.724060 
	C319.934509,706.516663 317.983032,703.208862 314.457825,701.876221 
	C309.364258,708.665833 310.933960,717.240723 318.255524,723.465088 
	C324.808685,729.036194 333.506500,729.188110 339.102814,723.511475 
	C333.826935,718.736633 328.560547,713.970398 322.758820,708.724060 
z"/>
<path fill="#000000" opacity="1.000000" stroke="none" 
	d="
M762.895569,547.110107 
	C765.112061,543.471069 763.541443,539.054443 767.093628,535.989258 
	C773.741394,530.252930 777.463745,529.349243 785.205811,533.300354 
	C786.901062,534.165466 788.704102,533.593689 790.608398,535.007019 
	C797.207520,539.904846 797.448059,546.635681 795.876282,553.196960 
	C794.941711,557.098328 790.751892,561.284058 787.128296,561.862122 
	C776.453247,563.564758 765.777527,562.964294 762.895569,547.110107 
z"/>
<path fill="#000000" opacity="1.000000" stroke="none" 
	d="
M756.862549,611.826904 
	C764.442261,613.885925 767.930420,619.076355 771.163025,625.535095 
	C773.602356,630.408875 770.107483,632.716248 769.241699,636.159546 
	C769.177917,636.413391 768.683044,636.528564 768.485046,636.783264 
	C758.207397,650.001038 754.905701,645.738464 742.570923,638.341797 
	C737.555359,635.334106 736.964172,624.396545 740.610046,619.406799 
	C746.484558,611.367004 749.981079,609.644714 756.862549,611.826904 
z"/>
<path fill="#000000" opacity="1.000000" stroke="none" 
	d="
M281.815613,622.722778 
	C292.689911,625.239441 297.982422,635.569275 292.268097,645.311157 
	C288.189423,652.264587 281.881592,655.654785 273.696198,655.302307 
	C267.345886,655.028809 261.738373,649.362122 261.696564,643.097168 
	C261.677673,640.269348 261.997986,637.395447 261.595490,634.625122 
	C261.096497,631.190002 263.245697,628.304565 265.288116,627.674744 
	C270.632843,626.026794 274.919128,620.661804 281.815613,622.722778 
z"/>
<path fill="#000000" opacity="1.000000" stroke="none" 
	d="
M249.322632,417.613678 
	C250.382523,422.591431 246.316788,424.036530 243.602112,428.238342 
	C243.321335,422.935272 236.280823,421.952423 239.829132,416.631439 
	C242.871780,412.068756 243.809158,405.318298 251.917511,404.939972 
	C251.017975,408.050323 255.347443,411.607971 249.803345,413.502899 
	C249.278290,413.682373 249.472107,415.965057 249.322632,417.613678 
z"/>
<path fill="#000000" opacity="1.000000" stroke="none" 
	d="
M715.661255,699.699707 
	C717.223877,699.572510 718.495789,699.479248 719.738342,699.388184 
	C721.269470,711.153748 713.446533,718.619629 703.031677,715.329346 
	C702.547241,709.398071 707.872070,707.278076 711.074707,704.057739 
	C712.465759,702.659058 714.308228,701.579468 715.661255,699.699707 
z"/>
<path fill="#000000" opacity="1.000000" stroke="none" 
	d="
M541.771606,226.994110 
	C544.389648,226.725830 545.697754,224.602081 547.796143,224.028442 
	C556.415833,221.671982 565.490234,229.112900 566.528809,237.917938 
	C567.665039,247.549683 562.477600,252.788559 555.701599,257.490234 
	C553.377502,259.102875 550.475342,258.492340 547.945374,258.076721 
	C541.952332,257.092224 536.664795,250.441833 536.648804,244.407120 
	C536.646545,243.577301 536.674194,242.746567 536.644348,241.917831 
	C536.445496,236.397217 535.956787,230.786774 541.771606,226.994110 
z"/>
<path fill="#000000" opacity="1.000000" stroke="none" 
	d="
M634.601929,247.953735 
	C642.609985,248.792465 645.569031,253.825943 646.684509,260.902618 
	C643.134216,262.380035 640.949097,259.159271 638.179077,258.377136 
	C633.416748,257.032440 630.020630,252.535980 624.743591,251.988754 
	C624.365540,251.949539 623.844849,251.005280 623.804016,250.451385 
	C623.707275,249.137924 624.764282,248.889404 625.798096,248.778625 
	C628.596741,248.478714 631.397156,248.196518 634.601929,247.953735 
z"/>
<path fill="#000000" opacity="1.000000" stroke="none" 
	d="
M452.674744,256.166504 
	C447.701477,250.997101 446.314026,245.338257 447.269562,238.439667 
	C448.317474,230.874176 454.183044,229.100250 459.496429,227.192993 
	C464.931915,225.241882 469.791565,227.257645 473.371735,232.299210 
	C478.074524,238.921585 477.971863,250.818146 472.757294,256.792572 
	C469.918579,260.044952 460.887573,261.415039 457.091064,259.118683 
	C455.681152,258.265900 454.359314,257.267517 452.674744,256.166504 
z"/>
<path fill="#000000" opacity="1.000000" stroke="none" 
	d="
M347.075348,284.070007 
	C343.343231,286.733429 340.597412,290.483063 335.666260,290.602966 
	C335.812714,278.126465 343.819458,272.051208 354.988373,275.770050 
	C354.323975,280.243866 349.209656,280.602966 347.075348,284.070007 
z"/>
<path fill="#000000" opacity="1.000000" stroke="none" 
	d="
M319.309509,720.632385 
	C314.791260,717.218750 313.655914,712.605896 312.160950,706.911438 
	C314.960297,707.942444 316.687347,706.062195 318.631500,707.172302 
	C323.004150,709.669006 332.357391,721.009460 333.563538,725.458252 
	C330.084869,726.498047 326.853821,727.686584 323.893738,724.036438 
	C322.813080,722.703918 321.029602,721.941345 319.309509,720.632385 
z"/>
</svg>